<svg width="218" height="56" viewBox="0 0 218 56" fill="none" xmlns="http://www.w3.org/2000/svg">
<rect width="218" height="56" rx="8" fill="#FAFAFA"/>
<path d="M53.8594 41.5117C53.125 41.5117 52.5469 41.4062 52.125 41.1953V39.4961C52.6797 39.6523 53.2578 39.7305 53.8594 39.7305C54.6328 39.7305 55.2188 39.4961 55.6172 39.0273C56.0234 38.5586 56.2266 37.8828 56.2266 37V19.8672H58.2188V36.8359C58.2188 38.3203 57.8438 39.4688 57.0938 40.2812C56.3438 41.1016 55.2656 41.5117 53.8594 41.5117ZM64.3125 24.1562V32.4883C64.3125 33.5352 64.5508 34.3164 65.0273 34.832C65.5039 35.3477 66.25 35.6055 67.2656 35.6055C68.6094 35.6055 69.5898 35.2383 70.207 34.5039C70.832 33.7695 71.1445 32.5703 71.1445 30.9062V24.1562H73.0898V37H71.4844L71.2031 35.2773H71.0977C70.6992 35.9102 70.1445 36.3945 69.4336 36.7305C68.7305 37.0664 67.9258 37.2344 67.0195 37.2344C65.457 37.2344 64.2852 36.8633 63.5039 36.1211C62.7305 35.3789 62.3438 34.1914 62.3438 32.5586V24.1562H64.3125ZM86.0156 37V28.6914C86.0156 27.6445 85.7773 26.8633 85.3008 26.3477C84.8242 25.832 84.0781 25.5742 83.0625 25.5742C81.7188 25.5742 80.7344 25.9375 80.1094 26.6641C79.4844 27.3906 79.1719 28.5898 79.1719 30.2617V37H77.2266V24.1562H78.8086L79.125 25.9141H79.2188C79.6172 25.2812 80.1758 24.793 80.8945 24.4492C81.6133 24.0977 82.4141 23.9219 83.2969 23.9219C84.8438 23.9219 86.0078 24.2969 86.7891 25.0469C87.5703 25.7891 87.9609 26.9805 87.9609 28.6211V37H86.0156ZM104.52 37H102.621V24.7891C102.621 23.7734 102.652 22.8125 102.715 21.9062C102.551 22.0703 102.367 22.2422 102.164 22.4219C101.961 22.6016 101.031 23.3633 99.375 24.707L98.3438 23.3711L102.879 19.8672H104.52V37ZM122.402 28.4102C122.402 31.3711 121.934 33.582 120.996 35.043C120.066 36.5039 118.641 37.2344 116.719 37.2344C114.875 37.2344 113.473 36.4883 112.512 34.9961C111.551 33.4961 111.07 31.3008 111.07 28.4102C111.07 25.4258 111.535 23.2109 112.465 21.7656C113.395 20.3203 114.812 19.5977 116.719 19.5977C118.578 19.5977 119.988 20.3516 120.949 21.8594C121.918 23.3672 122.402 25.5508 122.402 28.4102ZM113.039 28.4102C113.039 30.9023 113.332 32.7188 113.918 33.8594C114.504 34.9922 115.438 35.5586 116.719 35.5586C118.016 35.5586 118.953 34.9844 119.531 33.8359C120.117 32.6797 120.41 30.8711 120.41 28.4102C120.41 25.9492 120.117 24.1484 119.531 23.0078C118.953 21.8594 118.016 21.2852 116.719 21.2852C115.438 21.2852 114.504 21.8516 113.918 22.9844C113.332 24.1094 113.039 25.918 113.039 28.4102ZM130.828 31.457V29.6758H136.582V31.457H130.828ZM152.191 37H150.293V24.7891C150.293 23.7734 150.324 22.8125 150.387 21.9062C150.223 22.0703 150.039 22.2422 149.836 22.4219C149.633 22.6016 148.703 23.3633 147.047 24.707L146.016 23.3711L150.551 19.8672H152.191V37ZM170.789 33.0625H168.246V37H166.383V33.0625H158.051V31.3633L166.184 19.7734H168.246V31.293H170.789V33.0625ZM166.383 31.293V25.5977C166.383 24.4805 166.422 23.2188 166.5 21.8125H166.406C166.031 22.5625 165.68 23.1836 165.352 23.6758L159.996 31.293H166.383Z" fill="#222222"/>
<path d="M38 20H37V19C37 18.7348 36.8946 18.4804 36.7071 18.2929C36.5196 18.1054 36.2652 18 36 18C35.7348 18 35.4804 18.1054 35.2929 18.2929C35.1054 18.4804 35 18.7348 35 19V20H29V19C29 18.7348 28.8946 18.4804 28.7071 18.2929C28.5196 18.1054 28.2652 18 28 18C27.7348 18 27.4804 18.1054 27.2929 18.2929C27.1054 18.4804 27 18.7348 27 19V20H26C25.2044 20 24.4413 20.3161 23.8787 20.8787C23.3161 21.4413 23 22.2044 23 23V35C23 35.7956 23.3161 36.5587 23.8787 37.1213C24.4413 37.6839 25.2044 38 26 38H38C38.7956 38 39.5587 37.6839 40.1213 37.1213C40.6839 36.5587 41 35.7956 41 35V23C41 22.2044 40.6839 21.4413 40.1213 20.8787C39.5587 20.3161 38.7956 20 38 20ZM28 33C27.8022 33 27.6089 32.9414 27.4444 32.8315C27.28 32.7216 27.1518 32.5654 27.0761 32.3827C27.0004 32.2 26.9806 31.9989 27.0192 31.8049C27.0578 31.6109 27.153 31.4327 27.2929 31.2929C27.4327 31.153 27.6109 31.0578 27.8049 31.0192C27.9989 30.9806 28.2 31.0004 28.3827 31.0761C28.5654 31.1518 28.7216 31.28 28.8315 31.4444C28.9414 31.6089 29 31.8022 29 32C29 32.2652 28.8946 32.5196 28.7071 32.7071C28.5196 32.8946 28.2652 33 28 33ZM36 33H32C31.7348 33 31.4804 32.8946 31.2929 32.7071C31.1054 32.5196 31 32.2652 31 32C31 31.7348 31.1054 31.4804 31.2929 31.2929C31.4804 31.1054 31.7348 31 32 31H36C36.2652 31 36.5196 31.1054 36.7071 31.2929C36.8946 31.4804 37 31.7348 37 32C37 32.2652 36.8946 32.5196 36.7071 32.7071C36.5196 32.8946 36.2652 33 36 33ZM39 27H25V23C25 22.7348 25.1054 22.4804 25.2929 22.2929C25.4804 22.1054 25.7348 22 26 22H27V23C27 23.2652 27.1054 23.5196 27.2929 23.7071C27.4804 23.8946 27.7348 24 28 24C28.2652 24 28.5196 23.8946 28.7071 23.7071C28.8946 23.5196 29 23.2652 29 23V22H35V23C35 23.2652 35.1054 23.5196 35.2929 23.7071C35.4804 23.8946 35.7348 24 36 24C36.2652 24 36.5196 23.8946 36.7071 23.7071C36.8946 23.5196 37 23.2652 37 23V22H38C38.2652 22 38.5196 22.1054 38.7071 22.2929C38.8946 22.4804 39 22.7348 39 23V27Z" fill="#999999"/>
</svg>
