<svg width="218" height="56" viewBox="0 0 218 56" fill="none" xmlns="http://www.w3.org/2000/svg">
<rect width="218" height="56" rx="8" fill="#FAFAFA"/>
<path d="M66.4336 37H55.1719V35.3242L59.6836 30.7891C61.0586 29.3984 61.9648 28.4062 62.4023 27.8125C62.8398 27.2188 63.168 26.6406 63.3867 26.0781C63.6055 25.5156 63.7148 24.9102 63.7148 24.2617C63.7148 23.3477 63.4375 22.625 62.8828 22.0938C62.3281 21.5547 61.5586 21.2852 60.5742 21.2852C59.8633 21.2852 59.1875 21.4023 58.5469 21.6367C57.9141 21.8711 57.207 22.2969 56.4258 22.9141L55.3945 21.5898C56.9727 20.2773 58.6914 19.6211 60.5508 19.6211C62.1602 19.6211 63.4219 20.0352 64.3359 20.8633C65.25 21.6836 65.707 22.7891 65.707 24.1797C65.707 25.2656 65.4023 26.3398 64.793 27.4023C64.1836 28.4648 63.043 29.8086 61.3711 31.4336L57.6211 35.1016V35.1953H66.4336V37ZM83.8594 28.0234H89.6836V36.3555C88.7773 36.6445 87.8555 36.8633 86.918 37.0117C85.9805 37.1602 84.8945 37.2344 83.6602 37.2344C81.0664 37.2344 79.0469 36.4648 77.6016 34.9258C76.1562 33.3789 75.4336 31.2148 75.4336 28.4336C75.4336 26.6523 75.7891 25.0938 76.5 23.7578C77.2188 22.4141 78.25 21.3906 79.5938 20.6875C80.9375 19.9766 82.5117 19.6211 84.3164 19.6211C86.1445 19.6211 87.8477 19.957 89.4258 20.6289L88.6523 22.3867C87.1055 21.7305 85.6172 21.4023 84.1875 21.4023C82.1016 21.4023 80.4727 22.0234 79.3008 23.2656C78.1289 24.5078 77.543 26.2305 77.543 28.4336C77.543 30.7461 78.1055 32.5 79.2305 33.6953C80.3633 34.8906 82.0234 35.4883 84.2109 35.4883C85.3984 35.4883 86.5586 35.3516 87.6914 35.0781V29.8047H83.8594V28.0234ZM95.3438 24.1562V32.4883C95.3438 33.5352 95.582 34.3164 96.0586 34.832C96.5352 35.3477 97.2812 35.6055 98.2969 35.6055C99.6406 35.6055 100.621 35.2383 101.238 34.5039C101.863 33.7695 102.176 32.5703 102.176 30.9062V24.1562H104.121V37H102.516L102.234 35.2773H102.129C101.73 35.9102 101.176 36.3945 100.465 36.7305C99.7617 37.0664 98.957 37.2344 98.0508 37.2344C96.4883 37.2344 95.3164 36.8633 94.5352 36.1211C93.7617 35.3789 93.375 34.1914 93.375 32.5586V24.1562H95.3438ZM113.684 37.2344C111.785 37.2344 110.285 36.6562 109.184 35.5C108.09 34.3438 107.543 32.7383 107.543 30.6836C107.543 28.6133 108.051 26.9688 109.066 25.75C110.09 24.5312 111.461 23.9219 113.18 23.9219C114.789 23.9219 116.062 24.4531 117 25.5156C117.938 26.5703 118.406 27.9648 118.406 29.6992V30.9297H109.559C109.598 32.4375 109.977 33.582 110.695 34.3633C111.422 35.1445 112.441 35.5352 113.754 35.5352C115.137 35.5352 116.504 35.2461 117.855 34.668V36.4023C117.168 36.6992 116.516 36.9102 115.898 37.0352C115.289 37.168 114.551 37.2344 113.684 37.2344ZM113.156 25.5508C112.125 25.5508 111.301 25.8867 110.684 26.5586C110.074 27.2305 109.715 28.1602 109.605 29.3477H116.32C116.32 28.1211 116.047 27.1836 115.5 26.5352C114.953 25.8789 114.172 25.5508 113.156 25.5508ZM130.02 33.4961C130.02 34.6914 129.574 35.6133 128.684 36.2617C127.793 36.9102 126.543 37.2344 124.934 37.2344C123.23 37.2344 121.902 36.9648 120.949 36.4258V34.6211C121.566 34.9336 122.227 35.1797 122.93 35.3594C123.641 35.5391 124.324 35.6289 124.98 35.6289C125.996 35.6289 126.777 35.4688 127.324 35.1484C127.871 34.8203 128.145 34.3242 128.145 33.6602C128.145 33.1602 127.926 32.7344 127.488 32.3828C127.059 32.0234 126.215 31.6016 124.957 31.1172C123.762 30.6719 122.91 30.2852 122.402 29.957C121.902 29.6211 121.527 29.2422 121.277 28.8203C121.035 28.3984 120.914 27.8945 120.914 27.3086C120.914 26.2617 121.34 25.4375 122.191 24.8359C123.043 24.2266 124.211 23.9219 125.695 23.9219C127.078 23.9219 128.43 24.2031 129.75 24.7656L129.059 26.3477C127.77 25.8164 126.602 25.5508 125.555 25.5508C124.633 25.5508 123.938 25.6953 123.469 25.9844C123 26.2734 122.766 26.6719 122.766 27.1797C122.766 27.5234 122.852 27.8164 123.023 28.0586C123.203 28.3008 123.488 28.5312 123.879 28.75C124.27 28.9688 125.02 29.2852 126.129 29.6992C127.652 30.2539 128.68 30.8125 129.211 31.375C129.75 31.9375 130.02 32.6445 130.02 33.4961ZM137.344 35.6289C137.688 35.6289 138.02 35.6055 138.34 35.5586C138.66 35.5039 138.914 35.4492 139.102 35.3945V36.8828C138.891 36.9844 138.578 37.0664 138.164 37.1289C137.758 37.1992 137.391 37.2344 137.062 37.2344C134.578 37.2344 133.336 35.9258 133.336 33.3086V25.668H131.496V24.7305L133.336 23.9219L134.156 21.1797H135.281V24.1562H139.008V25.668H135.281V33.2266C135.281 34 135.465 34.5938 135.832 35.0078C136.199 35.4219 136.703 35.6289 137.344 35.6289ZM149.965 33.4961C149.965 34.6914 149.52 35.6133 148.629 36.2617C147.738 36.9102 146.488 37.2344 144.879 37.2344C143.176 37.2344 141.848 36.9648 140.895 36.4258V34.6211C141.512 34.9336 142.172 35.1797 142.875 35.3594C143.586 35.5391 144.27 35.6289 144.926 35.6289C145.941 35.6289 146.723 35.4688 147.27 35.1484C147.816 34.8203 148.09 34.3242 148.09 33.6602C148.09 33.1602 147.871 32.7344 147.434 32.3828C147.004 32.0234 146.16 31.6016 144.902 31.1172C143.707 30.6719 142.855 30.2852 142.348 29.957C141.848 29.6211 141.473 29.2422 141.223 28.8203C140.98 28.3984 140.859 27.8945 140.859 27.3086C140.859 26.2617 141.285 25.4375 142.137 24.8359C142.988 24.2266 144.156 23.9219 145.641 23.9219C147.023 23.9219 148.375 24.2031 149.695 24.7656L149.004 26.3477C147.715 25.8164 146.547 25.5508 145.5 25.5508C144.578 25.5508 143.883 25.6953 143.414 25.9844C142.945 26.2734 142.711 26.6719 142.711 27.1797C142.711 27.5234 142.797 27.8164 142.969 28.0586C143.148 28.3008 143.434 28.5312 143.824 28.75C144.215 28.9688 144.965 29.2852 146.074 29.6992C147.598 30.2539 148.625 30.8125 149.156 31.375C149.695 31.9375 149.965 32.6445 149.965 33.4961Z" fill="#222222"/>
<path d="M32 27C32.7911 27 33.5645 26.7654 34.2223 26.3259C34.8801 25.8864 35.3928 25.2616 35.6955 24.5307C35.9983 23.7998 36.0775 22.9956 35.9231 22.2196C35.7688 21.4437 35.3878 20.731 34.8284 20.1716C34.269 19.6122 33.5563 19.2312 32.7804 19.0769C32.0044 18.9225 31.2002 19.0017 30.4693 19.3045C29.7384 19.6072 29.1136 20.1199 28.6741 20.7777C28.2346 21.4355 28 22.2089 28 23C28 24.0609 28.4214 25.0783 29.1716 25.8284C29.9217 26.5786 30.9391 27 32 27Z" fill="#999999"/>
<path d="M38 37C38.2652 37 38.5196 36.8946 38.7071 36.7071C38.8946 36.5196 39 36.2652 39 36C39 34.1435 38.2625 32.363 36.9497 31.0503C35.637 29.7375 33.8565 29 32 29C30.1435 29 28.363 29.7375 27.0503 31.0503C25.7375 32.363 25 34.1435 25 36C25 36.2652 25.1054 36.5196 25.2929 36.7071C25.4804 36.8946 25.7348 37 26 37H38Z" fill="#999999"/>
</svg>
