<svg width="460" height="56" viewBox="0 0 460 56" fill="none" xmlns="http://www.w3.org/2000/svg">
<rect width="460" height="56" rx="8" fill="#FAFAFA"/>
<rect x="404" width="56" height="56" rx="8" fill="#3771C8"/>
<path d="M69.293 19.8672V30.9531C69.293 32.9062 68.7031 34.4414 67.5234 35.5586C66.3438 36.6758 64.7227 37.2344 62.6602 37.2344C60.5977 37.2344 59 36.6719 57.8672 35.5469C56.7422 34.4219 56.1797 32.875 56.1797 30.9062V19.8672H58.1719V31.0469C58.1719 32.4766 58.5625 33.5742 59.3438 34.3398C60.125 35.1055 61.2734 35.4883 62.7891 35.4883C64.2344 35.4883 65.3477 35.1055 66.1289 34.3398C66.9102 33.5664 67.3008 32.4609 67.3008 31.0234V19.8672H69.293ZM82.3359 37V28.6914C82.3359 27.6445 82.0977 26.8633 81.6211 26.3477C81.1445 25.832 80.3984 25.5742 79.3828 25.5742C78.0391 25.5742 77.0547 25.9375 76.4297 26.6641C75.8047 27.3906 75.4922 28.5898 75.4922 30.2617V37H73.5469V24.1562H75.1289L75.4453 25.9141H75.5391C75.9375 25.2812 76.4961 24.793 77.2148 24.4492C77.9336 24.0977 78.7344 23.9219 79.6172 23.9219C81.1641 23.9219 82.3281 24.2969 83.1094 25.0469C83.8906 25.7891 84.2812 26.9805 84.2812 28.6211V37H82.3359ZM90.2344 37H88.2891V24.1562H90.2344V37ZM88.125 20.6758C88.125 20.2305 88.2344 19.9062 88.4531 19.7031C88.6719 19.4922 88.9453 19.3867 89.2734 19.3867C89.5859 19.3867 89.8555 19.4922 90.082 19.7031C90.3086 19.9141 90.4219 20.2383 90.4219 20.6758C90.4219 21.1133 90.3086 21.4414 90.082 21.6602C89.8555 21.8711 89.5859 21.9766 89.2734 21.9766C88.9453 21.9766 88.6719 21.8711 88.4531 21.6602C88.2344 21.4414 88.125 21.1133 88.125 20.6758ZM98.5078 35.6289C98.8516 35.6289 99.1836 35.6055 99.5039 35.5586C99.8242 35.5039 100.078 35.4492 100.266 35.3945V36.8828C100.055 36.9844 99.7422 37.0664 99.3281 37.1289C98.9219 37.1992 98.5547 37.2344 98.2266 37.2344C95.7422 37.2344 94.5 35.9258 94.5 33.3086V25.668H92.6602V24.7305L94.5 23.9219L95.3203 21.1797H96.4453V24.1562H100.172V25.668H96.4453V33.2266C96.4453 34 96.6289 34.5938 96.9961 35.0078C97.3633 35.4219 97.8672 35.6289 98.5078 35.6289ZM108.27 37.2344C106.371 37.2344 104.871 36.6562 103.77 35.5C102.676 34.3438 102.129 32.7383 102.129 30.6836C102.129 28.6133 102.637 26.9688 103.652 25.75C104.676 24.5312 106.047 23.9219 107.766 23.9219C109.375 23.9219 110.648 24.4531 111.586 25.5156C112.523 26.5703 112.992 27.9648 112.992 29.6992V30.9297H104.145C104.184 32.4375 104.562 33.582 105.281 34.3633C106.008 35.1445 107.027 35.5352 108.34 35.5352C109.723 35.5352 111.09 35.2461 112.441 34.668V36.4023C111.754 36.6992 111.102 36.9102 110.484 37.0352C109.875 37.168 109.137 37.2344 108.27 37.2344ZM107.742 25.5508C106.711 25.5508 105.887 25.8867 105.27 26.5586C104.66 27.2305 104.301 28.1602 104.191 29.3477H110.906C110.906 28.1211 110.633 27.1836 110.086 26.5352C109.539 25.8789 108.758 25.5508 107.742 25.5508ZM125.062 35.2773H124.957C124.059 36.582 122.715 37.2344 120.926 37.2344C119.246 37.2344 117.938 36.6602 117 35.5117C116.07 34.3633 115.605 32.7305 115.605 30.6133C115.605 28.4961 116.074 26.8516 117.012 25.6797C117.949 24.5078 119.254 23.9219 120.926 23.9219C122.668 23.9219 124.004 24.5547 124.934 25.8203H125.086L125.004 24.8945L124.957 23.9922V18.7656H126.902V37H125.32L125.062 35.2773ZM121.172 35.6055C122.5 35.6055 123.461 35.2461 124.055 34.5273C124.656 33.8008 124.957 32.6328 124.957 31.0234V30.6133C124.957 28.793 124.652 27.4961 124.043 26.7227C123.441 25.9414 122.477 25.5508 121.148 25.5508C120.008 25.5508 119.133 25.9961 118.523 26.8867C117.922 27.7695 117.621 29.0195 117.621 30.6367C117.621 32.2773 117.922 33.5156 118.523 34.3516C119.125 35.1875 120.008 35.6055 121.172 35.6055ZM147.234 32.4414C147.234 33.9492 146.688 35.125 145.594 35.9688C144.5 36.8125 143.016 37.2344 141.141 37.2344C139.109 37.2344 137.547 36.9727 136.453 36.4492V34.5273C137.156 34.8242 137.922 35.0586 138.75 35.2305C139.578 35.4023 140.398 35.4883 141.211 35.4883C142.539 35.4883 143.539 35.2383 144.211 34.7383C144.883 34.2305 145.219 33.5273 145.219 32.6289C145.219 32.0352 145.098 31.5508 144.855 31.1758C144.621 30.793 144.223 30.4414 143.66 30.1211C143.105 29.8008 142.258 29.4375 141.117 29.0312C139.523 28.4609 138.383 27.7852 137.695 27.0039C137.016 26.2227 136.676 25.2031 136.676 23.9453C136.676 22.625 137.172 21.5742 138.164 20.793C139.156 20.0117 140.469 19.6211 142.102 19.6211C143.805 19.6211 145.371 19.9336 146.801 20.5586L146.18 22.293C144.766 21.6992 143.391 21.4023 142.055 21.4023C141 21.4023 140.176 21.6289 139.582 22.082C138.988 22.5352 138.691 23.1641 138.691 23.9688C138.691 24.5625 138.801 25.0508 139.02 25.4336C139.238 25.8086 139.605 26.1562 140.121 26.4766C140.645 26.7891 141.441 27.1367 142.512 27.5195C144.309 28.1602 145.543 28.8477 146.215 29.582C146.895 30.3164 147.234 31.2695 147.234 32.4414ZM154.594 35.6289C154.938 35.6289 155.27 35.6055 155.59 35.5586C155.91 35.5039 156.164 35.4492 156.352 35.3945V36.8828C156.141 36.9844 155.828 37.0664 155.414 37.1289C155.008 37.1992 154.641 37.2344 154.312 37.2344C151.828 37.2344 150.586 35.9258 150.586 33.3086V25.668H148.746V24.7305L150.586 23.9219L151.406 21.1797H152.531V24.1562H156.258V25.668H152.531V33.2266C152.531 34 152.715 34.5938 153.082 35.0078C153.449 35.4219 153.953 35.6289 154.594 35.6289ZM166.828 37L166.441 35.1719H166.348C165.707 35.9766 165.066 36.5234 164.426 36.8125C163.793 37.0938 163 37.2344 162.047 37.2344C160.773 37.2344 159.773 36.9062 159.047 36.25C158.328 35.5938 157.969 34.6602 157.969 33.4492C157.969 30.8555 160.043 29.4961 164.191 29.3711L166.371 29.3008V28.5039C166.371 27.4961 166.152 26.7539 165.715 26.2773C165.285 25.793 164.594 25.5508 163.641 25.5508C162.57 25.5508 161.359 25.8789 160.008 26.5352L159.41 25.0469C160.043 24.7031 160.734 24.4336 161.484 24.2383C162.242 24.043 163 23.9453 163.758 23.9453C165.289 23.9453 166.422 24.2852 167.156 24.9648C167.898 25.6445 168.27 26.7344 168.27 28.2344V37H166.828ZM162.434 35.6289C163.645 35.6289 164.594 35.2969 165.281 34.6328C165.977 33.9688 166.324 33.0391 166.324 31.8438V30.6836L164.379 30.7656C162.832 30.8203 161.715 31.0625 161.027 31.4922C160.348 31.9141 160.008 32.5742 160.008 33.4727C160.008 34.1758 160.219 34.7109 160.641 35.0781C161.07 35.4453 161.668 35.6289 162.434 35.6289ZM176.438 35.6289C176.781 35.6289 177.113 35.6055 177.434 35.5586C177.754 35.5039 178.008 35.4492 178.195 35.3945V36.8828C177.984 36.9844 177.672 37.0664 177.258 37.1289C176.852 37.1992 176.484 37.2344 176.156 37.2344C173.672 37.2344 172.43 35.9258 172.43 33.3086V25.668H170.59V24.7305L172.43 23.9219L173.25 21.1797H174.375V24.1562H178.102V25.668H174.375V33.2266C174.375 34 174.559 34.5938 174.926 35.0078C175.293 35.4219 175.797 35.6289 176.438 35.6289ZM186.199 37.2344C184.301 37.2344 182.801 36.6562 181.699 35.5C180.605 34.3438 180.059 32.7383 180.059 30.6836C180.059 28.6133 180.566 26.9688 181.582 25.75C182.605 24.5312 183.977 23.9219 185.695 23.9219C187.305 23.9219 188.578 24.4531 189.516 25.5156C190.453 26.5703 190.922 27.9648 190.922 29.6992V30.9297H182.074C182.113 32.4375 182.492 33.582 183.211 34.3633C183.938 35.1445 184.957 35.5352 186.27 35.5352C187.652 35.5352 189.02 35.2461 190.371 34.668V36.4023C189.684 36.6992 189.031 36.9102 188.414 37.0352C187.805 37.168 187.066 37.2344 186.199 37.2344ZM185.672 25.5508C184.641 25.5508 183.816 25.8867 183.199 26.5586C182.59 27.2305 182.23 28.1602 182.121 29.3477H188.836C188.836 28.1211 188.562 27.1836 188.016 26.5352C187.469 25.8789 186.688 25.5508 185.672 25.5508ZM202.535 33.4961C202.535 34.6914 202.09 35.6133 201.199 36.2617C200.309 36.9102 199.059 37.2344 197.449 37.2344C195.746 37.2344 194.418 36.9648 193.465 36.4258V34.6211C194.082 34.9336 194.742 35.1797 195.445 35.3594C196.156 35.5391 196.84 35.6289 197.496 35.6289C198.512 35.6289 199.293 35.4688 199.84 35.1484C200.387 34.8203 200.66 34.3242 200.66 33.6602C200.66 33.1602 200.441 32.7344 200.004 32.3828C199.574 32.0234 198.73 31.6016 197.473 31.1172C196.277 30.6719 195.426 30.2852 194.918 29.957C194.418 29.6211 194.043 29.2422 193.793 28.8203C193.551 28.3984 193.43 27.8945 193.43 27.3086C193.43 26.2617 193.855 25.4375 194.707 24.8359C195.559 24.2266 196.727 23.9219 198.211 23.9219C199.594 23.9219 200.945 24.2031 202.266 24.7656L201.574 26.3477C200.285 25.8164 199.117 25.5508 198.07 25.5508C197.148 25.5508 196.453 25.6953 195.984 25.9844C195.516 26.2734 195.281 26.6719 195.281 27.1797C195.281 27.5234 195.367 27.8164 195.539 28.0586C195.719 28.3008 196.004 28.5312 196.395 28.75C196.785 28.9688 197.535 29.2852 198.645 29.6992C200.168 30.2539 201.195 30.8125 201.727 31.375C202.266 31.9375 202.535 32.6445 202.535 33.4961Z" fill="#222222"/>
<path d="M32 27C32.8284 27 33.5 26.3284 33.5 25.5C33.5 24.6716 32.8284 24 32 24C31.1716 24 30.5 24.6716 30.5 25.5C30.5 26.3284 31.1716 27 32 27Z" fill="#999999"/>
<path d="M32 18C29.8921 17.9999 27.8693 18.8318 26.3712 20.3148C24.8732 21.7978 24.0211 23.8122 24 25.92C24 31.4 31.05 37.5 31.35 37.76C31.5311 37.9149 31.7616 38.0001 32 38.0001C32.2384 38.0001 32.4689 37.9149 32.65 37.76C33 37.5 40 31.4 40 25.92C39.9789 23.8122 39.1268 21.7978 37.6288 20.3148C36.1307 18.8318 34.1079 17.9999 32 18ZM32 29C31.3078 29 30.6311 28.7947 30.0555 28.4101C29.4799 28.0256 29.0313 27.4789 28.7664 26.8394C28.5015 26.1999 28.4322 25.4961 28.5673 24.8172C28.7023 24.1382 29.0356 23.5146 29.5251 23.0251C30.0146 22.5356 30.6382 22.2023 31.3172 22.0673C31.9961 21.9322 32.6999 22.0015 33.3394 22.2664C33.9789 22.5313 34.5256 22.9799 34.9101 23.5555C35.2947 24.1311 35.5 24.8078 35.5 25.5C35.5 26.4283 35.1313 27.3185 34.4749 27.9749C33.8185 28.6313 32.9283 29 32 29Z" fill="#999999"/>
<path d="M440.71 35.29L437.31 31.9C438.407 30.5025 439.002 28.7767 439 27C439 25.4178 438.531 23.871 437.652 22.5554C436.773 21.2398 435.523 20.2145 434.061 19.609C432.6 19.0035 430.991 18.845 429.439 19.1537C427.887 19.4624 426.462 20.2243 425.343 21.3431C424.224 22.462 423.462 23.8874 423.154 25.4393C422.845 26.9911 423.003 28.5997 423.609 30.0615C424.214 31.5233 425.24 32.7727 426.555 33.6518C427.871 34.5308 429.418 35 431 35C432.777 35.0022 434.502 34.407 435.9 33.31L439.29 36.71C439.383 36.8037 439.494 36.8781 439.615 36.9289C439.737 36.9797 439.868 37.0058 440 37.0058C440.132 37.0058 440.263 36.9797 440.385 36.9289C440.506 36.8781 440.617 36.8037 440.71 36.71C440.804 36.617 440.878 36.5064 440.929 36.3846C440.98 36.2627 441.006 36.132 441.006 36C441.006 35.868 440.98 35.7373 440.929 35.6154C440.878 35.4936 440.804 35.383 440.71 35.29ZM425 27C425 25.8133 425.352 24.6533 426.011 23.6666C426.67 22.6799 427.608 21.9109 428.704 21.4567C429.8 21.0026 431.007 20.8838 432.171 21.1153C433.334 21.3468 434.404 21.9182 435.243 22.7574C436.082 23.5965 436.653 24.6656 436.885 25.8295C437.116 26.9933 436.997 28.1997 436.543 29.2961C436.089 30.3925 435.32 31.3295 434.333 31.9888C433.347 32.6481 432.187 33 431 33C429.409 33 427.883 32.3679 426.757 31.2426C425.632 30.1174 425 28.5913 425 27Z" fill="white"/>
</svg>
